<mxfile host="app.diagrams.net" agent="Mozilla/5.0 (X11; Ubuntu; Linux x86_64; rv:143.0) Gecko/20100101 Firefox/143.0" version="28.1.2">
  <diagram name="Page-1" id="e3a06f82-3646-2815-327d-82caf3d4e204">
    <mxGraphModel dx="466" dy="271" grid="1" gridSize="10" guides="1" tooltips="1" connect="1" arrows="1" fold="1" page="1" pageScale="1.5" pageWidth="1169" pageHeight="826" background="none" math="0" shadow="0">
      <root>
        <mxCell id="0" style=";html=1;" />
        <mxCell id="1" style=";html=1;" parent="0" />
        <mxCell id="hesKE7swdU3SiNc-Gto3-44" value="Team Environment&amp;nbsp; &amp;nbsp;" style="whiteSpace=wrap;html=1;fillColor=#f8cecc;fontSize=14;strokeColor=#b85450;verticalAlign=top;dashed=1;dashPattern=8 8;align=right;" parent="1" vertex="1">
          <mxGeometry x="990" y="386" width="470" height="420" as="geometry" />
        </mxCell>
        <mxCell id="hesKE7swdU3SiNc-Gto3-36" style="edgeStyle=none;rounded=0;html=1;startSize=10;endSize=10;jettySize=auto;orthogonalLoop=1;fontSize=14;endArrow=none;endFill=0;strokeWidth=2;" parent="1" source="hesKE7swdU3SiNc-Gto3-2" target="hesKE7swdU3SiNc-Gto3-22" edge="1">
          <mxGeometry relative="1" as="geometry">
            <mxPoint x="730" y="446" as="sourcePoint" />
            <mxPoint x="924" y="622" as="targetPoint" />
          </mxGeometry>
        </mxCell>
        <mxCell id="6a7d8f32e03d9370-57" value="Siege Server" style="whiteSpace=wrap;html=1;fillColor=#dae8fc;fontSize=14;strokeColor=#6c8ebf;verticalAlign=top;dashed=1;dashPattern=8 8;align=center;" parent="1" vertex="1">
          <mxGeometry x="179" y="98" width="308" height="152" as="geometry" />
        </mxCell>
        <mxCell id="hesKE7swdU3SiNc-Gto3-17" style="edgeStyle=none;rounded=0;html=1;startSize=10;endSize=10;jettySize=auto;orthogonalLoop=1;fontSize=14;endArrow=none;endFill=0;strokeWidth=2;entryX=0.5;entryY=0;entryDx=0;entryDy=0;" parent="1" source="hesKE7swdU3SiNc-Gto3-21" target="hesKE7swdU3SiNc-Gto3-16" edge="1">
          <mxGeometry relative="1" as="geometry">
            <mxPoint x="490" y="340" as="sourcePoint" />
            <mxPoint x="671" y="511" as="targetPoint" />
          </mxGeometry>
        </mxCell>
        <mxCell id="6a7d8f32e03d9370-33" style="edgeStyle=none;rounded=0;html=1;startSize=10;endSize=10;jettySize=auto;orthogonalLoop=1;fontSize=14;endArrow=none;endFill=0;strokeWidth=2;entryX=0.5;entryY=0;entryDx=0;entryDy=0;" parent="1" source="hesKE7swdU3SiNc-Gto3-21" target="6a7d8f32e03d9370-59" edge="1">
          <mxGeometry relative="1" as="geometry">
            <mxPoint x="455" y="368.24291115311917" as="sourcePoint" />
            <mxPoint x="470" y="340" as="targetPoint" />
          </mxGeometry>
        </mxCell>
        <mxCell id="hesKE7swdU3SiNc-Gto3-16" value="Team Environment 1" style="whiteSpace=wrap;html=1;fillColor=#f8cecc;fontSize=14;strokeColor=#b85450;verticalAlign=top;dashed=1;dashPattern=8 8;" parent="1" vertex="1">
          <mxGeometry x="78.75" y="375" width="187.5" height="195" as="geometry" />
        </mxCell>
        <mxCell id="6a7d8f32e03d9370-59" value="Team Environment N" style="whiteSpace=wrap;html=1;fillColor=#f8cecc;fontSize=14;strokeColor=#b85450;verticalAlign=top;dashed=1;dashPattern=8 8;" parent="1" vertex="1">
          <mxGeometry x="382.5" y="375" width="187.5" height="195" as="geometry" />
        </mxCell>
        <mxCell id="6a7d8f32e03d9370-32" style="edgeStyle=none;rounded=0;html=1;startSize=10;endSize=10;jettySize=auto;orthogonalLoop=1;fontSize=14;endArrow=none;endFill=0;strokeWidth=2;" parent="1" source="hesKE7swdU3SiNc-Gto3-21" target="hesKE7swdU3SiNc-Gto3-3" edge="1">
          <mxGeometry relative="1" as="geometry">
            <mxPoint x="295" y="174.5" as="sourcePoint" />
            <mxPoint x="637" y="201.13687150837984" as="targetPoint" />
          </mxGeometry>
        </mxCell>
        <mxCell id="6a7d8f32e03d9370-41" style="edgeStyle=none;rounded=0;html=1;startSize=10;endSize=10;jettySize=auto;orthogonalLoop=1;fontSize=14;endArrow=none;endFill=0;strokeWidth=2;" parent="1" source="hesKE7swdU3SiNc-Gto3-3" target="hesKE7swdU3SiNc-Gto3-18" edge="1">
          <mxGeometry relative="1" as="geometry">
            <mxPoint x="759" y="529.8827160493827" as="targetPoint" />
          </mxGeometry>
        </mxCell>
        <mxCell id="6a7d8f32e03d9370-10" value="Vulnerable Service" style="verticalLabelPosition=bottom;aspect=fixed;html=1;verticalAlign=top;strokeColor=none;shape=mxgraph.citrix.xenapp_server;fillColor=#66B2FF;gradientColor=#0066CC;fontSize=14;" parent="1" vertex="1">
          <mxGeometry x="1190" y="686" width="76" height="89" as="geometry" />
        </mxCell>
        <mxCell id="hesKE7swdU3SiNc-Gto3-1" value="VPN Access Server" style="verticalLabelPosition=bottom;sketch=0;aspect=fixed;html=1;verticalAlign=top;strokeColor=none;align=center;outlineConnect=0;shape=mxgraph.citrix.proxy_server;" parent="1" vertex="1">
          <mxGeometry x="1360" y="556" width="76.5" height="90" as="geometry" />
        </mxCell>
        <mxCell id="hesKE7swdU3SiNc-Gto3-2" value="Scoreboard Server" style="verticalLabelPosition=bottom;sketch=0;aspect=fixed;html=1;verticalAlign=top;strokeColor=none;align=center;outlineConnect=0;shape=mxgraph.citrix.command_center;labelBackgroundColor=light-dark(#ffffff, #ededed);" parent="1" vertex="1">
          <mxGeometry x="1014.75" y="180" width="75.5" height="96" as="geometry" />
        </mxCell>
        <mxCell id="hesKE7swdU3SiNc-Gto3-3" value="&lt;div&gt;Web Server&lt;/div&gt;" style="verticalLabelPosition=bottom;sketch=0;aspect=fixed;html=1;verticalAlign=top;strokeColor=none;align=center;outlineConnect=0;shape=mxgraph.citrix.web_service;" parent="1" vertex="1">
          <mxGeometry x="363" y="144.5" width="63" height="60" as="geometry" />
        </mxCell>
        <mxCell id="hesKE7swdU3SiNc-Gto3-5" value="Player Machine" style="verticalLabelPosition=bottom;sketch=0;aspect=fixed;html=1;verticalAlign=top;strokeColor=none;align=center;outlineConnect=0;shape=mxgraph.citrix.laptop_2;" parent="1" vertex="1">
          <mxGeometry x="1510" y="386" width="116" height="86.5" as="geometry" />
        </mxCell>
        <mxCell id="hesKE7swdU3SiNc-Gto3-7" value="" style="verticalLabelPosition=bottom;sketch=0;aspect=fixed;html=1;verticalAlign=top;strokeColor=none;align=center;outlineConnect=0;shape=mxgraph.citrix.license_server;" parent="1" vertex="1">
          <mxGeometry x="100" y="410" width="65" height="85" as="geometry" />
        </mxCell>
        <mxCell id="hesKE7swdU3SiNc-Gto3-8" value="" style="verticalLabelPosition=bottom;sketch=0;aspect=fixed;html=1;verticalAlign=top;strokeColor=none;align=center;outlineConnect=0;shape=mxgraph.citrix.license_server;" parent="1" vertex="1">
          <mxGeometry x="140" y="430" width="65" height="85" as="geometry" />
        </mxCell>
        <mxCell id="hesKE7swdU3SiNc-Gto3-11" value="" style="verticalLabelPosition=bottom;sketch=0;aspect=fixed;html=1;verticalAlign=top;strokeColor=none;align=center;outlineConnect=0;shape=mxgraph.citrix.license_server;" parent="1" vertex="1">
          <mxGeometry x="180" y="450" width="65" height="85" as="geometry" />
        </mxCell>
        <mxCell id="hesKE7swdU3SiNc-Gto3-12" value="" style="verticalLabelPosition=bottom;sketch=0;aspect=fixed;html=1;verticalAlign=top;strokeColor=none;align=center;outlineConnect=0;shape=mxgraph.citrix.license_server;" parent="1" vertex="1">
          <mxGeometry x="410" y="410" width="65" height="85" as="geometry" />
        </mxCell>
        <mxCell id="hesKE7swdU3SiNc-Gto3-13" value="" style="verticalLabelPosition=bottom;sketch=0;aspect=fixed;html=1;verticalAlign=top;strokeColor=none;align=center;outlineConnect=0;shape=mxgraph.citrix.license_server;" parent="1" vertex="1">
          <mxGeometry x="450" y="430" width="65" height="85" as="geometry" />
        </mxCell>
        <mxCell id="hesKE7swdU3SiNc-Gto3-14" value="" style="verticalLabelPosition=bottom;sketch=0;aspect=fixed;html=1;verticalAlign=top;strokeColor=none;align=center;outlineConnect=0;shape=mxgraph.citrix.license_server;" parent="1" vertex="1">
          <mxGeometry x="490" y="450" width="65" height="85" as="geometry" />
        </mxCell>
        <mxCell id="hesKE7swdU3SiNc-Gto3-15" value="" style="shape=image;html=1;verticalAlign=top;verticalLabelPosition=bottom;labelBackgroundColor=#ffffff;imageAspect=0;aspect=fixed;image=https://icons.diagrams.net/icon-cache1/Ionicons_Fill_Vol_1-2186/ellipsis-horizontal-1351.svg" parent="1" vertex="1">
          <mxGeometry x="300" y="450" width="52" height="52" as="geometry" />
        </mxCell>
        <mxCell id="hesKE7swdU3SiNc-Gto3-18" value="Spectator" style="verticalLabelPosition=bottom;sketch=0;aspect=fixed;html=1;verticalAlign=top;strokeColor=none;align=center;outlineConnect=0;shape=mxgraph.citrix.laptop_2;" parent="1" vertex="1">
          <mxGeometry x="620" y="130.75" width="116" height="86.5" as="geometry" />
        </mxCell>
        <mxCell id="hesKE7swdU3SiNc-Gto3-19" value="Vulnerable Service" style="verticalLabelPosition=bottom;aspect=fixed;html=1;verticalAlign=top;strokeColor=none;shape=mxgraph.citrix.xenapp_server;fillColor=#66B2FF;gradientColor=#0066CC;fontSize=14;" parent="1" vertex="1">
          <mxGeometry x="1190" y="416" width="76" height="89" as="geometry" />
        </mxCell>
        <mxCell id="hesKE7swdU3SiNc-Gto3-20" value="Vulnerable Service" style="verticalLabelPosition=bottom;aspect=fixed;html=1;verticalAlign=top;strokeColor=none;shape=mxgraph.citrix.xenapp_server;fillColor=#66B2FF;gradientColor=#0066CC;fontSize=14;" parent="1" vertex="1">
          <mxGeometry x="1190" y="556" width="76" height="89" as="geometry" />
        </mxCell>
        <mxCell id="hesKE7swdU3SiNc-Gto3-21" value="Scoreboard Server" style="verticalLabelPosition=bottom;sketch=0;aspect=fixed;html=1;verticalAlign=top;strokeColor=none;align=center;outlineConnect=0;shape=mxgraph.citrix.process;labelBorderColor=none;labelBackgroundColor=light-dark(#dae8fc, #ededed);textShadow=0;" parent="1" vertex="1">
          <mxGeometry x="230" y="144.5" width="52" height="62" as="geometry" />
        </mxCell>
        <mxCell id="hesKE7swdU3SiNc-Gto3-22" value="Attack Bot" style="verticalLabelPosition=bottom;sketch=0;aspect=fixed;html=1;verticalAlign=top;strokeColor=none;align=center;outlineConnect=0;shape=mxgraph.citrix.license_server;" parent="1" vertex="1">
          <mxGeometry x="1020" y="556" width="65" height="85" as="geometry" />
        </mxCell>
        <mxCell id="hesKE7swdU3SiNc-Gto3-34" value="" style="shape=image;html=1;verticalAlign=top;verticalLabelPosition=bottom;labelBackgroundColor=#ffffff;imageAspect=0;aspect=fixed;image=https://icons.diagrams.net/icon-cache1/Ionicons_Fill_Vol_2-2187/skull-621.svg;imageBackground=none;imageBorder=none;" parent="1" vertex="1">
          <mxGeometry x="1070" y="614" width="32" height="32" as="geometry" />
        </mxCell>
        <mxCell id="hesKE7swdU3SiNc-Gto3-37" style="edgeStyle=none;rounded=0;html=1;startSize=10;endSize=10;jettySize=auto;orthogonalLoop=1;fontSize=14;endArrow=none;endFill=0;strokeWidth=2;" parent="1" source="hesKE7swdU3SiNc-Gto3-19" target="hesKE7swdU3SiNc-Gto3-22" edge="1">
          <mxGeometry relative="1" as="geometry">
            <mxPoint x="820" y="526" as="sourcePoint" />
            <mxPoint x="1014" y="702" as="targetPoint" />
          </mxGeometry>
        </mxCell>
        <mxCell id="hesKE7swdU3SiNc-Gto3-38" style="edgeStyle=none;rounded=0;html=1;startSize=10;endSize=10;jettySize=auto;orthogonalLoop=1;fontSize=14;endArrow=none;endFill=0;strokeWidth=2;" parent="1" source="hesKE7swdU3SiNc-Gto3-22" target="6a7d8f32e03d9370-10" edge="1">
          <mxGeometry relative="1" as="geometry">
            <mxPoint x="830" y="626" as="sourcePoint" />
            <mxPoint x="1024" y="802" as="targetPoint" />
          </mxGeometry>
        </mxCell>
        <mxCell id="hesKE7swdU3SiNc-Gto3-39" style="edgeStyle=none;rounded=0;html=1;startSize=10;endSize=10;jettySize=auto;orthogonalLoop=1;fontSize=14;endArrow=none;endFill=0;strokeWidth=2;" parent="1" source="hesKE7swdU3SiNc-Gto3-22" target="hesKE7swdU3SiNc-Gto3-20" edge="1">
          <mxGeometry relative="1" as="geometry">
            <mxPoint x="830" y="626" as="sourcePoint" />
            <mxPoint x="1024" y="802" as="targetPoint" />
          </mxGeometry>
        </mxCell>
        <mxCell id="hesKE7swdU3SiNc-Gto3-40" style="edgeStyle=none;rounded=0;html=1;startSize=10;endSize=10;jettySize=auto;orthogonalLoop=1;fontSize=14;endArrow=none;endFill=0;strokeWidth=2;" parent="1" source="hesKE7swdU3SiNc-Gto3-1" target="hesKE7swdU3SiNc-Gto3-20" edge="1">
          <mxGeometry relative="1" as="geometry">
            <mxPoint x="780" y="666" as="sourcePoint" />
            <mxPoint x="974" y="842" as="targetPoint" />
          </mxGeometry>
        </mxCell>
        <mxCell id="hesKE7swdU3SiNc-Gto3-42" style="edgeStyle=none;rounded=0;html=1;startSize=10;endSize=10;jettySize=auto;orthogonalLoop=1;fontSize=14;endArrow=none;endFill=0;strokeWidth=2;" parent="1" source="hesKE7swdU3SiNc-Gto3-1" target="hesKE7swdU3SiNc-Gto3-19" edge="1">
          <mxGeometry relative="1" as="geometry">
            <mxPoint x="960" y="726" as="sourcePoint" />
            <mxPoint x="1154" y="902" as="targetPoint" />
          </mxGeometry>
        </mxCell>
        <mxCell id="hesKE7swdU3SiNc-Gto3-43" style="edgeStyle=none;rounded=0;html=1;startSize=10;endSize=10;jettySize=auto;orthogonalLoop=1;fontSize=14;endArrow=none;endFill=0;strokeWidth=2;" parent="1" source="hesKE7swdU3SiNc-Gto3-1" target="6a7d8f32e03d9370-10" edge="1">
          <mxGeometry relative="1" as="geometry">
            <mxPoint x="960" y="746" as="sourcePoint" />
            <mxPoint x="1154" y="922" as="targetPoint" />
          </mxGeometry>
        </mxCell>
        <mxCell id="hesKE7swdU3SiNc-Gto3-41" style="edgeStyle=none;rounded=0;html=1;startSize=10;endSize=10;jettySize=auto;orthogonalLoop=1;fontSize=14;endArrow=none;endFill=0;strokeWidth=2;" parent="1" source="hesKE7swdU3SiNc-Gto3-1" target="hesKE7swdU3SiNc-Gto3-5" edge="1">
          <mxGeometry relative="1" as="geometry">
            <mxPoint x="780" y="706" as="sourcePoint" />
            <mxPoint x="974" y="882" as="targetPoint" />
          </mxGeometry>
        </mxCell>
        <mxCell id="hesKE7swdU3SiNc-Gto3-45" value="Player Machine" style="verticalLabelPosition=bottom;sketch=0;aspect=fixed;html=1;verticalAlign=top;strokeColor=none;align=center;outlineConnect=0;shape=mxgraph.citrix.laptop_2;" parent="1" vertex="1">
          <mxGeometry x="1520" y="630" width="116" height="86.5" as="geometry" />
        </mxCell>
        <mxCell id="hesKE7swdU3SiNc-Gto3-46" style="edgeStyle=none;rounded=0;html=1;startSize=10;endSize=10;jettySize=auto;orthogonalLoop=1;fontSize=14;endArrow=none;endFill=0;strokeWidth=2;" parent="1" source="hesKE7swdU3SiNc-Gto3-1" target="hesKE7swdU3SiNc-Gto3-45" edge="1">
          <mxGeometry relative="1" as="geometry">
            <mxPoint x="1500" y="630" as="sourcePoint" />
            <mxPoint x="1588" y="541" as="targetPoint" />
          </mxGeometry>
        </mxCell>
        <mxCell id="iIu_erWiZ9OcpV4ydScH-1" value="Team Environment&amp;nbsp; &amp;nbsp;" style="whiteSpace=wrap;html=1;fillColor=#f8cecc;fontSize=14;strokeColor=#b85450;verticalAlign=top;dashed=1;dashPattern=8 8;align=right;" parent="1" vertex="1">
          <mxGeometry x="200" y="686" width="470" height="274" as="geometry" />
        </mxCell>
        <mxCell id="iIu_erWiZ9OcpV4ydScH-3" value="Attack Portal" style="verticalLabelPosition=bottom;sketch=0;aspect=fixed;html=1;verticalAlign=top;strokeColor=none;align=center;outlineConnect=0;shape=mxgraph.citrix.license_server;" parent="1" vertex="1">
          <mxGeometry x="270" y="730" width="65" height="85" as="geometry" />
        </mxCell>
        <mxCell id="iIu_erWiZ9OcpV4ydScH-4" value="" style="shape=image;html=1;verticalAlign=top;verticalLabelPosition=bottom;labelBackgroundColor=#ffffff;imageAspect=0;aspect=fixed;image=https://icons.diagrams.net/icon-cache1/Ionicons_Fill_Vol_2-2187/skull-621.svg;imageBackground=none;imageBorder=none;" parent="1" vertex="1">
          <mxGeometry x="320" y="788" width="32" height="32" as="geometry" />
        </mxCell>
        <mxCell id="iIu_erWiZ9OcpV4ydScH-5" value="Player Machine" style="verticalLabelPosition=bottom;sketch=0;aspect=fixed;html=1;verticalAlign=top;strokeColor=none;align=center;outlineConnect=0;shape=mxgraph.citrix.laptop_2;" parent="1" vertex="1">
          <mxGeometry x="377" y="1010" width="116" height="86.5" as="geometry" />
        </mxCell>
        <mxCell id="iIu_erWiZ9OcpV4ydScH-6" style="edgeStyle=none;rounded=0;html=1;startSize=10;endSize=10;jettySize=auto;orthogonalLoop=1;fontSize=14;endArrow=none;endFill=0;strokeWidth=2;" parent="1" source="iIu_erWiZ9OcpV4ydScH-2" target="XANqv73mHEMF6POOEoGt-2" edge="1">
          <mxGeometry relative="1" as="geometry">
            <mxPoint x="780" y="820" as="sourcePoint" />
            <mxPoint x="931" y="745" as="targetPoint" />
          </mxGeometry>
        </mxCell>
        <mxCell id="iIu_erWiZ9OcpV4ydScH-9" style="edgeStyle=none;rounded=0;html=1;startSize=10;endSize=10;jettySize=auto;orthogonalLoop=1;fontSize=14;endArrow=none;endFill=0;strokeWidth=2;" parent="1" source="iIu_erWiZ9OcpV4ydScH-3" target="XANqv73mHEMF6POOEoGt-2" edge="1">
          <mxGeometry relative="1" as="geometry">
            <mxPoint x="634" y="950" as="sourcePoint" />
            <mxPoint x="540" y="1070" as="targetPoint" />
          </mxGeometry>
        </mxCell>
        <mxCell id="iIu_erWiZ9OcpV4ydScH-10" style="edgeStyle=none;rounded=0;html=1;startSize=10;endSize=10;jettySize=auto;orthogonalLoop=1;fontSize=14;endArrow=none;endFill=0;strokeWidth=2;" parent="1" source="iIu_erWiZ9OcpV4ydScH-2" target="iIu_erWiZ9OcpV4ydScH-3" edge="1">
          <mxGeometry relative="1" as="geometry">
            <mxPoint x="764" y="1020" as="sourcePoint" />
            <mxPoint x="670" y="1140" as="targetPoint" />
          </mxGeometry>
        </mxCell>
        <mxCell id="iIu_erWiZ9OcpV4ydScH-2" value="Vulnerable Service" style="verticalLabelPosition=bottom;aspect=fixed;html=1;verticalAlign=top;strokeColor=none;shape=mxgraph.citrix.xenapp_server;fillColor=#66B2FF;gradientColor=#0066CC;fontSize=14;labelBackgroundColor=light-dark(#f8cecc, #ededed);" parent="1" vertex="1">
          <mxGeometry x="520" y="731" width="76" height="89" as="geometry" />
        </mxCell>
        <mxCell id="XANqv73mHEMF6POOEoGt-2" value="VPN Access Server" style="verticalLabelPosition=bottom;sketch=0;aspect=fixed;html=1;verticalAlign=top;strokeColor=none;align=center;outlineConnect=0;shape=mxgraph.citrix.proxy_server;" vertex="1" parent="1">
          <mxGeometry x="396.75" y="830" width="76.5" height="90" as="geometry" />
        </mxCell>
        <mxCell id="XANqv73mHEMF6POOEoGt-3" style="edgeStyle=none;rounded=0;html=1;startSize=10;endSize=10;jettySize=auto;orthogonalLoop=1;fontSize=14;endArrow=none;endFill=0;strokeWidth=2;" edge="1" parent="1" source="iIu_erWiZ9OcpV4ydScH-5" target="XANqv73mHEMF6POOEoGt-2">
          <mxGeometry relative="1" as="geometry">
            <mxPoint x="554" y="980" as="sourcePoint" />
            <mxPoint x="470" y="1170" as="targetPoint" />
          </mxGeometry>
        </mxCell>
      </root>
    </mxGraphModel>
  </diagram>
</mxfile>
